<svg id="Layer_2" height="512" viewBox="0 0 32 32" width="512" xmlns="http://www.w3.org/2000/svg" data-name="Layer 2"><path d="m16 1a15 15 0 1 0 15 15 15.00543 15.00543 0 0 0 -15-15zm2.71 20.9a1.75565 1.75565 0 0 1 -.96 1.57 1.79557 1.79557 0 0 1 -.81.2 1.73487 1.73487 0 0 1 -1.02-.34l-4.5-3.23h-2.62a1.79885 1.79885 0 0 1 -1.8-1.8v-4.6a1.7989 1.7989 0 0 1 1.8-1.8h2.62l4.5-3.23a1.73159 1.73159 0 0 1 1.83-.14 1.75571 1.75571 0 0 1 .96 1.57zm5.69-5.3h-3.6a.6.6 0 0 1 0-1.2h3.6a.6.6 0 0 1 0 1.2z"/></svg>